<svg width="24" height="24" viewBox="0 0 24 24" fill="none" xmlns="http://www.w3.org/2000/svg">
<g clip-path="url(#clip0_67_72)">
<path d="M9 -1V1H15V-1H17V1H21C21.2652 1 21.5196 1.10536 21.7071 1.29289C21.8946 1.48043 22 1.73478 22 2V18C22 18.2652 21.8946 18.5196 21.7071 18.7071C21.5196 18.8946 21.2652 19 21 19H3C2.73478 19 2.48043 18.8946 2.29289 18.7071C2.10536 18.5196 2 18.2652 2 18V2C2 1.73478 2.10536 1.48043 2.29289 1.29289C2.48043 1.10536 2.73478 1 3 1H7V-1H9ZM20 9H4V17H20V9ZM7 3H4V7H20V3H17V5H15V3H9V5H7V3Z" fill="black"/>
</g>
<defs>
<clipPath id="clip0_67_72">
<rect width="24" height="24" fill="white"/>
</clipPath>
</defs>
</svg>
