<svg width="32" height="32" viewBox="0 0 32 32" fill="none" xmlns="http://www.w3.org/2000/svg">
<path d="M12.7187 20.3067C10.5871 20.3067 8.78044 19.5662 7.29866 18.0853C5.81778 16.6053 5.07733 14.7991 5.07733 12.6667C5.07733 10.5342 5.81778 8.72755 7.29866 7.24667C8.77955 5.76578 10.5862 5.02578 12.7187 5.02667C14.8511 5.02755 16.6573 5.768 18.1373 7.248C19.6173 8.728 20.3578 10.5342 20.3587 12.6667C20.3587 13.5929 20.1947 14.4893 19.8667 15.356C19.5387 16.2227 19.1076 16.964 18.5733 17.58L26.452 25.456C26.5764 25.5804 26.6431 25.7338 26.652 25.916C26.66 26.0964 26.5933 26.2578 26.452 26.4C26.3098 26.5422 26.1524 26.6133 25.98 26.6133C25.8076 26.6133 25.6502 26.5422 25.508 26.4L17.6307 18.5227C16.964 19.0907 16.1973 19.5302 15.3307 19.8413C14.464 20.1524 13.5929 20.308 12.7173 20.308M12.7173 18.9747C14.4862 18.9747 15.98 18.3658 17.1987 17.148C18.4164 15.9302 19.0253 14.4364 19.0253 12.6667C19.0253 10.8969 18.4169 9.40355 17.2 8.18667C15.9831 6.96978 14.4898 6.36089 12.72 6.36C10.9502 6.36 9.45644 6.96889 8.23866 8.18667C7.02089 9.40444 6.41155 10.8978 6.41066 12.6667C6.40978 14.4356 7.01866 15.9289 8.23733 17.1467C9.456 18.3644 10.9493 18.9733 12.7173 18.9733" fill="#A47864"/>
</svg>
