<svg width="32" height="32" viewBox="0 0 32 32" fill="none" xmlns="http://www.w3.org/2000/svg">
<path d="M10.2933 21.9413L12.6413 21.264L26.7787 6.95733C26.8902 6.84306 26.9523 6.68951 26.9515 6.52985C26.9508 6.37018 26.8873 6.21722 26.7747 6.104L25.928 5.248C25.8733 5.19178 25.8079 5.14702 25.7357 5.11634C25.6635 5.08566 25.586 5.06966 25.5075 5.06929C25.4291 5.06892 25.3513 5.08418 25.2789 5.11417C25.2064 5.14417 25.1406 5.1883 25.0853 5.244L10.9853 19.5133L10.2933 21.9413ZM27.604 3.552L28.4507 4.40933C29.6187 5.592 29.6293 7.5 28.472 8.67067L13.904 23.4147L8.88534 24.86C8.73362 24.9026 8.57498 24.915 8.41849 24.8963C8.262 24.8777 8.11072 24.8284 7.97328 24.7512C7.83585 24.6741 7.71496 24.5706 7.61751 24.4468C7.52006 24.3229 7.44796 24.1811 7.40534 24.0293C7.33995 23.8093 7.33902 23.5752 7.40267 23.3547L8.86267 18.2347L23.392 3.52933C23.6683 3.25114 23.9972 3.03075 24.3595 2.881C24.7219 2.73126 25.1104 2.65516 25.5025 2.65714C25.8945 2.65913 26.2823 2.73916 26.6431 2.89257C27.0039 3.04598 27.3306 3.27102 27.604 3.552ZM12.2453 5.08933C12.9067 5.08933 13.4427 5.632 13.4427 6.30133C13.4437 6.45956 13.4136 6.61644 13.354 6.763C13.2943 6.90957 13.2064 7.04295 13.0952 7.15551C12.984 7.26807 12.8517 7.35761 12.7059 7.41901C12.5601 7.48041 12.4036 7.51246 12.2453 7.51333H7.45601C6.13334 7.51333 5.06134 8.59867 5.06134 9.936V24.4773C5.06134 25.816 6.13334 26.9013 7.45601 26.9013H21.824C23.1467 26.9013 24.22 25.816 24.22 24.4773V19.6307C24.22 18.9613 24.756 18.4187 25.4173 18.4187C26.0787 18.4187 26.6147 18.9613 26.6147 19.632V24.4773C26.6147 27.1547 24.4693 29.3253 21.824 29.3253H7.45601C4.81067 29.3253 2.66667 27.1547 2.66667 24.4773V9.936C2.66667 7.26 4.81067 5.08933 7.45601 5.08933H12.2453Z" fill="#FAFAFA"/>
</svg>
